# xmcd
#
# Track frame offsets:
#	150
#	12517
#	31282
#	50483
#	67519
#	80365
#	98674
#	111580
#	127831
#	145248
#	160822
#	179772
#
# Disc length: 2593 seconds
# Revision: 0
# Processed by: cddbd v1.5.2PL0 Copyright (c) Steve Scherf et al.
# Submitted via: dBpowerAMP V12.0
#
DISCID=990a1f0c
DTITLE=Darin and Brooke Aldridge - Live at Red, White and Bluegrass!
DYEAR=2012
DGENRE=Country
TTITLE0=Lonely Ends Where Love Begins
TTITLE1=Making Plans
TTITLE2=No One Needs To Know
TTITLE3=Corn
TTITLE4=When He Beckons Me Home
TTITLE5=Every Scar
TTITLE6=Foggy Mountain Rock
TTITLE7=That's Just Me Loving You
TTITLE8=To Know Him Is To Love HIm
TTITLE9=He's Already There
TTITLE10=Sweetest Waste Of Time
TTITLE11=Powderfinger
EXTD=
EXTT0=
EXTT1=
EXTT2=
EXTT3=
EXTT4=
EXTT5=
EXTT6=
EXTT7=
EXTT8=
EXTT9=
EXTT10=
EXTT11=
PLAYORDER=
